PathFileType	4	(X/Y/Z)	 s03c0103.trc
DataRate	CameraRate	NumFrames	NumMarkers	Units	OrigDataRate	OrigDataStartFrame	OrigNumFrames
200	200	7	50	mm	200	1001	2000
Frame#	Time	racr			lacr			c7			jug			rlel			rdr			llel			ldr			s2			lic			ric			lasi			rasi			rpsi			lpsi			rgt			lgt			rth1			rth2			rth3			rth4			rlfc			rmfc			rsh1			rsh2			rsh3			rsh4			rlmal			rcal			rtoe			rmt5			rmt1			lth1			lth2			lth4			lth3			llfc			lmfc			lsh1			lsh2			lsh3			lsh4			llmal			lcal			ltoe			lmt1			lmt5			SBIKE			LBIKE			RBIKE			
		X1	Y1	Z1	X2	Y2	Z2	X3	Y3	Z3	X4	Y4	Z4	X5	Y5	Z5	X6	Y6	Z6	X7	Y7	Z7	X8	Y8	Z8	X9	Y9	Z9	X10	Y10	Z10	X11	Y11	Z11	X12	Y12	Z12	X13	Y13	Z13	X14	Y14	Z14	X15	Y15	Z15	X16	Y16	Z16	X17	Y17	Z17	X18	Y18	Z18	X19	Y19	Z19	X20	Y20	Z20	X21	Y21	Z21	X22	Y22	Z22	X23	Y23	Z23	X24	Y24	Z24	X25	Y25	Z25	X26	Y26	Z26	X27	Y27	Z27	X28	Y28	Z28	X29	Y29	Z29	X30	Y30	Z30	X31	Y31	Z31	X32	Y32	Z32	X33	Y33	Z33	X34	Y34	Z34	X35	Y35	Z35	X36	Y36	Z36	X37	Y37	Z37	X38	Y38	Z38	X39	Y39	Z39	X40	Y40	Z40	X41	Y41	Z41	X42	Y42	Z42	X43	Y43	Z43	X44	Y44	Z44	X45	Y45	Z45	X46	Y46	Z46	X47	Y47	Z47	X48	Y48	Z48	X49	Y49	Z49	X50	Y50	Z50	
1001	5.0050	438.573865	1415.746485	-52.997441	486.884674	1403.467410	-347.315077	400.499055	1497.006647	-210.343073	400.758130	1320.155473	-209.188286	489.903859	1149.797394	28.007913	721.264392	965.029887	-33.372453	558.671714	1161.942260	-460.799113	751.016491	926.879350	-413.666938	-113.397163	1220.536656	-286.344394	77.763070	1249.124846	-445.031721	11.498082	1273.334549	-82.881729	91.537359	1181.565217	-407.583438	57.740154	1201.691572	-126.617456	-95.929380	1277.795794	-247.879954	-80.201204	1271.309656	-325.444651	-4.300317	1199.015650	-72.874092	11.174098	1118.261235	-465.194199	132.342497	1126.349511	-45.929871	221.668454	1126.459020	-45.771864	297.371327	1086.157693	-43.601794	230.516685	1158.747476	-63.751980	419.269783	1027.016589	-61.519347	431.741117	1005.518284	-191.229917	353.247449	875.782420	-40.527182	332.952347	789.829970	-50.914135	272.045021	725.914860	-51.699696	361.004924	776.533386	-73.305172	205.364426	605.824522	-67.684050	133.360173	570.630580	-106.192026	433.842856	494.201408	-116.252000	316.782236	506.029853	-43.169982	341.319351	515.528460	-155.775802	94.230430	985.561398	-484.521171	158.108497	927.048242	-492.405905	188.967125	946.866543	-489.104465	185.956626	842.546965	-486.933282	267.203514	738.499058	-471.155510	275.819088	727.604351	-347.816039	196.360717	580.303526	-482.457895	194.921333	497.036985	-462.881561	148.654152	420.778229	-449.801226	229.207971	490.389147	-444.327379	108.740201	303.475806	-424.406236	40.800114	295.511219	-374.959703	306.718225	141.068040	-353.598284	221.068508	183.735220	-316.530189	192.907290	169.823996	-434.112816	-216.450406	945.983381	-237.099602	-7.002131	83.958781	-436.688732	-12.607318	82.099554	-36.217602	
1002	5.0100	437.749480	1415.537011	-52.112779	486.722480	1402.973269	-346.231560	399.977271	1496.962606	-208.459756	399.897509	1320.109782	-207.840342	488.809351	1149.455544	27.979293	720.724750	965.345117	-33.251527	558.024635	1161.595494	-460.220922	750.529860	926.333453	-413.449112	-113.826758	1221.351261	-285.826880	76.688586	1250.274183	-444.928363	10.567511	1274.419345	-82.538575	90.518556	1182.792627	-407.340541	57.157080	1201.536351	-126.107036	-96.532767	1278.392343	-247.366192	-80.689173	1272.252553	-324.927444	-5.538459	1198.108772	-72.681769	10.754233	1120.105956	-465.029012	131.129169	1123.524823	-45.436138	220.385185	1122.557435	-45.051137	295.667570	1081.557138	-43.090178	229.489840	1154.728703	-62.753989	416.702448	1021.568092	-62.066260	429.505795	1000.275090	-190.799494	353.293858	868.623007	-39.960713	334.445316	782.287056	-50.415252	274.255303	717.313152	-51.593357	362.294419	769.610798	-73.290371	210.565999	595.738547	-66.940605	138.921788	558.385380	-105.285074	441.748481	493.504397	-115.572957	324.374593	500.200122	-41.806550	348.755881	510.907620	-154.775108	95.539462	988.943970	-484.356894	160.142696	931.400301	-492.258676	190.715252	951.566948	-488.641505	189.033527	847.246459	-487.640054	270.498847	743.033757	-472.900921	279.636539	732.178985	-349.443393	197.392755	585.671071	-483.231211	194.822382	503.283157	-464.450839	147.128216	427.109036	-449.969753	228.658033	495.451459	-444.464054	105.439285	311.144902	-424.272210	37.259348	305.680848	-374.489202	296.333491	139.258660	-350.927338	213.293519	187.023707	-316.567446	184.752843	174.726710	-433.955321	-216.575848	945.971010	-237.189411	-7.042967	83.974951	-436.767866	-12.985561	82.533595	-36.228579	
1003	5.0150	437.141406	1415.318918	-51.432220	486.521272	1402.455008	-345.468384	399.784168	1496.896926	-207.987036	399.178174	1320.046475	-207.327508	487.717248	1149.083035	27.809070	720.208096	965.597205	-33.251888	557.260417	1161.353546	-460.081402	750.244574	926.057973	-413.518183	-114.669411	1221.920402	-284.870886	75.486827	1251.293895	-444.746423	9.909827	1275.142087	-82.093269	89.425419	1184.002036	-407.186278	56.663110	1201.257591	-125.469314	-97.104143	1278.721054	-246.536074	-81.199704	1273.261344	-324.051468	-6.647572	1196.725627	-72.173496	10.103685	1121.883811	-464.622367	129.882382	1120.092850	-44.760959	219.109423	1117.889864	-44.090084	293.791134	1075.768005	-42.534211	228.681632	1150.241168	-61.222146	414.055455	1014.866103	-61.886238	427.090062	994.053802	-190.141102	353.168185	860.444415	-39.110575	335.827831	773.605596	-49.690691	276.933571	707.645258	-50.740219	364.059458	761.586739	-72.422912	215.446611	584.995886	-66.498073	144.531113	545.142370	-104.745173	449.340973	492.165756	-114.795482	331.859409	493.629535	-40.617495	355.935198	505.754101	-153.662447	96.866569	992.391133	-484.116776	162.236751	935.865043	-491.947324	192.477361	956.367618	-488.086617	192.277275	852.047133	-488.215813	274.152981	747.954279	-474.436426	284.029027	737.064751	-350.917100	198.780049	591.214753	-483.976104	194.834627	508.894503	-464.850697	145.901325	433.651542	-450.090497	228.513044	500.604681	-444.622340	102.390214	319.190979	-424.075286	34.172983	316.170013	-373.992493	286.776644	140.025005	-351.033870	205.661363	190.908954	-316.624804	176.762211	180.182682	-433.778872	-216.686844	945.929503	-237.277783	-7.059368	83.950754	-436.840956	-13.047092	82.525510	-36.268309	
1004	5.0200	436.727941	1415.161279	-51.002513	486.208341	1401.974815	-345.000768	399.660915	1496.811468	-207.811936	398.547782	1319.965270	-207.011615	486.802781	1148.939898	27.745751	719.742349	965.727012	-33.384000	556.707591	1161.023328	-459.701820	749.992463	925.934413	-413.619696	-115.530317	1222.521706	-283.751742	74.136122	1252.210216	-444.355198	9.362448	1275.470748	-81.410799	88.247663	1185.018042	-406.935951	56.258395	1200.859167	-124.706659	-97.716265	1278.873056	-245.402496	-81.894553	1273.394175	-323.154300	-7.750307	1195.169510	-71.668136	9.481205	1123.693475	-464.225514	128.494900	1116.047704	-43.936018	217.718870	1112.509673	-42.951568	291.693626	1069.197311	-41.878587	227.904045	1144.931235	-59.504385	411.450543	1007.082326	-60.880516	424.472290	986.929620	-189.302376	352.804044	851.122125	-38.153478	337.165016	764.049074	-48.891154	279.587840	696.930875	-49.807459	365.406064	752.703105	-71.819562	220.249079	573.295113	-66.126478	150.111661	531.144871	-104.306304	457.019286	489.809663	-113.799063	339.236172	486.576395	-39.825963	362.901549	499.853796	-152.743381	98.147685	995.948098	-483.738957	164.442236	940.365916	-491.580912	194.297409	961.249836	-487.491920	195.569109	856.938696	-488.603109	277.935348	753.112802	-476.032976	288.347756	741.912535	-352.427801	200.340340	597.027896	-484.706150	195.057619	514.895034	-465.305589	144.979344	440.452269	-450.175906	228.599206	506.076066	-444.956683	99.551524	327.501919	-423.831238	31.271465	326.855471	-373.455633	277.424772	141.373303	-351.002649	198.320292	195.321054	-316.675449	169.132016	186.128297	-433.532871	-216.763142	945.874445	-237.286622	-7.084649	83.946470	-436.852888	-13.062951	82.485322	-36.279746	
1005	5.0250	436.602008	1415.013222	-50.864064	485.800183	1401.558588	-344.900767	399.571617	1496.658255	-207.930630	398.118302	1319.816745	-206.931232	486.069584	1148.714528	27.546588	719.293428	965.766925	-33.629877	556.076780	1160.667556	-459.494600	749.687529	925.789471	-413.771471	-116.493603	1222.908163	-282.329383	72.778502	1253.079479	-443.815557	8.955279	1275.387562	-80.497560	87.050531	1186.057069	-406.639272	55.943084	1200.344952	-123.821442	-98.468263	1278.856679	-244.091933	-82.494312	1273.735068	-321.914904	-8.656339	1193.271902	-71.000397	8.794209	1125.346306	-463.597933	127.242411	1111.509446	-43.023111	216.273422	1106.399294	-41.807201	289.483810	1061.794260	-41.030084	227.118641	1138.970339	-57.607244	407.851639	998.467722	-60.761536	421.052803	978.803618	-188.633354	352.154988	840.714117	-37.628724	338.312487	753.472693	-48.308362	282.193725	685.141605	-49.025483	366.603366	742.810220	-71.602383	224.685507	561.162641	-65.598184	155.750216	516.516245	-104.097085	464.164242	486.519260	-113.320264	346.462362	478.907066	-39.332457	369.738813	493.245312	-152.411538	99.500482	999.449637	-483.334535	166.673650	944.881728	-491.085040	196.126135	966.142519	-486.798447	198.971807	861.904023	-488.922271	281.972365	758.466518	-477.651120	292.859180	747.011292	-353.805449	202.135053	603.046886	-485.500638	195.515716	521.089925	-465.667309	144.114817	447.575169	-450.276434	228.853178	511.776301	-445.251694	96.832670	336.063106	-423.547685	28.638379	337.758574	-372.932154	268.221763	143.847112	-351.129472	191.102326	200.188994	-316.572497	161.706692	192.582988	-433.358646	-216.777216	945.818355	-237.203938	-7.082700	83.902357	-436.839516	-13.056571	82.405821	-36.296524	
1006	5.0300	436.661080	1414.892751	-50.906902	485.227605	1401.222797	-345.109908	399.490373	1496.536854	-208.191086	397.700780	1319.700860	-206.994332	485.471310	1148.508391	27.194330	718.880976	965.775048	-33.954981	555.348435	1160.244490	-459.597111	749.294162	925.658300	-413.902479	-117.384294	1223.144371	-280.877910	71.463394	1253.621333	-443.010657	8.732786	1274.968811	-79.404205	85.700345	1186.804840	-406.212047	55.717328	1199.718818	-122.816031	-99.521897	1278.724017	-242.600292	-82.821817	1273.588201	-320.779596	-9.459138	1191.162888	-70.156115	8.099655	1126.988530	-462.962109	125.921468	1106.557542	-42.009001	214.847028	1099.804269	-40.446545	288.015027	1052.574458	-40.901210	226.348403	1132.410208	-55.634355	404.522703	988.880005	-58.751448	417.648633	970.436858	-188.532491	351.542387	829.878773	-36.592564	339.523822	742.329862	-48.215604	284.759305	672.714673	-48.797919	368.756386	732.551628	-71.159998	229.392214	548.218013	-65.689918	161.427500	501.554038	-104.217678	470.921379	482.206530	-112.745301	353.341500	470.787115	-38.901953	376.292317	485.781568	-152.056739	100.946451	1002.771753	-482.925250	168.888902	949.377383	-490.507082	197.987080	970.980184	-485.961445	202.418371	866.906303	-489.207442	286.137456	763.894173	-479.168533	297.260802	752.011649	-355.167966	204.037526	609.302668	-486.162281	196.011262	527.445467	-465.955174	143.436807	454.974499	-450.359451	229.246369	517.554404	-445.249861	94.182632	344.881219	-423.260362	26.152015	348.674477	-372.417012	259.404813	147.015561	-351.134204	185.844936	208.176113	-319.883603	154.748459	199.798522	-433.372226	-216.738319	945.759977	-237.064388	-7.084143	83.872240	-436.819346	-12.739070	81.928761	-36.328661	
1007	5.0350	436.895905	1414.816141	-51.149843	484.667038	1400.948861	-345.445874	399.410325	1496.331060	-208.595914	397.526758	1319.499118	-207.149054	485.046593	1148.368938	26.864137	718.632848	965.757252	-34.458932	554.584707	1159.757566	-459.815151	748.883374	925.544374	-414.074762	-118.378703	1222.658766	-279.145095	70.163828	1254.049017	-441.992083	8.685023	1274.140443	-78.066487	84.423761	1187.322923	-405.540048	55.581277	1198.984640	-121.692796	-99.860658	1278.520633	-240.822839	-83.975988	1273.835201	-318.759375	-10.150850	1188.814823	-69.092989	7.479741	1128.457261	-462.275695	124.766414	1101.091786	-41.276289	213.424105	1092.790282	-39.084578	286.661517	1046.346533	-39.305642	225.561462	1125.400389	-53.575610	400.793196	978.460370	-58.017202	414.318848	960.109561	-184.967289	350.748429	818.316137	-36.102847	340.542045	730.589170	-48.237152	287.437753	659.878163	-48.811204	369.749088	721.562486	-71.609151	233.842671	535.137095	-65.958546	166.648948	486.879805	-104.230995	477.340665	476.983015	-112.133171	359.871486	461.977478	-38.537207	382.986502	477.746264	-152.181923	102.375813	1006.170290	-482.410613	171.101684	953.810960	-489.879830	199.817011	975.766910	-485.076613	205.830001	871.840644	-489.429475	290.468107	769.347947	-480.653263	301.850759	757.200133	-356.381006	206.044344	615.721098	-486.910374	196.614871	534.214244	-466.357067	142.711485	462.625204	-450.437980	229.637116	523.854341	-445.884222	91.493986	353.982732	-422.988681	23.737008	359.664185	-371.977286	250.854637	151.026023	-351.213888	179.464007	214.476850	-320.137029	147.950150	207.192975	-433.195706	-216.640559	945.703977	-236.882593	-7.066289	83.825493	-436.794233	-12.708182	81.814280	-36.319908	
